<svg version="1.1" id="Layer_1" xmlns="http://www.w3.org/2000/svg" xmlns:xlink="http://www.w3.org/1999/xlink" x="0px" y="0px"
	 width="100%" viewBox="0 0 856 856" enable-background="new 0 0 856 856" xml:space="preserve">
<path fill="transparent" opacity="1.000000" stroke="none" 
	d="
M857.000000,332.000000 
	C857.000000,507.333252 857.000000,682.166504 857.000000,856.999817 
	C571.666870,856.999878 286.333710,856.999878 1.000432,856.999939 
	C1.000288,571.666992 1.000288,286.333954 1.000144,1.000700 
	C286.332916,1.000467 571.665833,1.000467 856.999390,1.000233 
	C857.000000,111.166664 857.000000,221.333328 857.000000,332.000000 
M368.609894,835.983948 
	C377.483582,838.195496 386.303650,840.657959 395.241852,842.567566 
	C415.205383,846.832520 435.376740,849.808899 455.826416,849.921936 
	C469.430298,849.997131 483.066010,849.759216 496.636169,848.874512 
	C508.915100,848.073975 521.227966,846.797791 533.341492,844.677490 
	C554.123413,841.039917 574.629822,836.001221 594.209045,827.961975 
	C607.960449,822.315674 621.531860,816.204407 635.005432,809.918640 
	C642.665161,806.345215 649.966248,802.003113 657.441650,798.000305 
	C680.646423,839.000305 715.223328,857.681030 761.372620,847.505737 
	C794.412354,840.220947 817.831604,818.292847 826.414734,785.278503 
	C838.853088,737.435303 820.099060,701.708435 777.969910,677.228882 
	C819.390259,607.377563 836.704773,532.205322 827.984741,451.338623 
	C819.259521,370.423920 787.343628,299.394165 730.505066,241.674789 
	C629.518250,139.123123 507.395172,109.474342 368.490234,143.156281 
	C342.089417,51.418034 257.257111,0.210065 170.773972,11.107185 
	C130.043549,16.239332 94.739342,33.828945 65.973923,62.886978 
	C35.944126,93.222229 18.408756,130.110580 14.547281,172.957565 
	C11.780384,203.659119 15.817094,233.507874 28.446404,261.711334 
	C49.695854,309.165070 84.974373,342.041901 133.941605,360.222260 
	C132.854843,362.768250 131.849594,364.824341 131.082275,366.965668 
	C119.408653,399.542725 112.140556,433.139465 110.212540,467.633972 
	C108.835098,492.278198 109.032570,517.145142 113.291046,541.525635 
	C116.709831,561.098816 121.665993,580.468018 127.039795,599.619202 
	C134.286133,625.443726 145.784439,649.570923 159.331573,672.675781 
	C173.261948,696.434143 189.537781,718.559265 208.898560,738.123169 
	C221.430115,750.786316 235.087097,762.370972 248.611420,774.007019 
	C264.333038,787.533569 282.068420,798.182556 300.254700,807.995300 
	C321.785583,819.612793 344.446472,828.619080 368.609894,835.983948 
z"/>
<path fill="#11999E" opacity="1.000000" stroke="none" 
	d="
M368.201782,835.943970 
	C344.446472,828.619080 321.785583,819.612793 300.254700,807.995300 
	C282.068420,798.182556 264.333038,787.533569 248.611420,774.007019 
	C235.087097,762.370972 221.430115,750.786316 208.898560,738.123169 
	C189.537781,718.559265 173.261948,696.434143 159.331573,672.675781 
	C145.784439,649.570923 134.286133,625.443726 127.039795,599.619202 
	C121.665993,580.468018 116.709831,561.098816 113.291046,541.525635 
	C109.032570,517.145142 108.835098,492.278198 110.212540,467.633972 
	C112.140556,433.139465 119.408653,399.542725 131.082275,366.965668 
	C131.849594,364.824341 132.854843,362.768250 133.941605,360.222260 
	C84.974373,342.041901 49.695854,309.165070 28.446404,261.711334 
	C15.817094,233.507874 11.780384,203.659119 14.547281,172.957565 
	C18.408756,130.110580 35.944126,93.222229 65.973923,62.886978 
	C94.739342,33.828945 130.043549,16.239332 170.773972,11.107185 
	C257.257111,0.210065 342.089417,51.418034 368.490234,143.156281 
	C507.395172,109.474342 629.518250,139.123123 730.505066,241.674789 
	C787.343628,299.394165 819.259521,370.423920 827.984741,451.338623 
	C836.704773,532.205322 819.390259,607.377563 777.969910,677.228882 
	C820.099060,701.708435 838.853088,737.435303 826.414734,785.278503 
	C817.831604,818.292847 794.412354,840.220947 761.372620,847.505737 
	C715.223328,857.681030 680.646423,839.000305 657.441650,798.000305 
	C649.966248,802.003113 642.665161,806.345215 635.005432,809.918640 
	C621.531860,816.204407 607.960449,822.315674 594.209045,827.961975 
	C574.629822,836.001221 554.123413,841.039917 533.341492,844.677490 
	C521.227966,846.797791 508.915100,848.073975 496.636169,848.874512 
	C483.066010,849.759216 469.430298,849.997131 455.826416,849.921936 
	C435.376740,849.808899 415.205383,846.832520 395.241852,842.567566 
	C386.303650,840.657959 377.483582,838.195496 368.201782,835.943970 
M295.821503,409.092621 
	C286.166687,402.381927 275.272797,401.113190 263.942871,401.935791 
	C246.121170,403.229706 232.497787,414.032959 228.825424,430.768036 
	C224.592819,450.056183 229.804062,464.860809 245.992035,474.741089 
	C254.636398,480.017181 263.746521,484.565155 272.167175,490.162689 
	C280.375671,495.619171 282.954865,506.094757 279.440155,515.514709 
	C276.593384,523.144470 268.621887,527.485779 258.840546,527.369080 
	C250.061111,527.264404 242.330093,524.141907 234.657227,520.393738 
	C233.062637,519.614746 230.488983,519.008057 229.197739,519.756287 
	C223.523605,523.044434 223.495575,535.090698 229.241135,538.146118 
	C234.175842,540.770325 239.421890,543.241638 244.827896,544.462524 
	C258.822296,547.623047 272.553192,547.159180 285.260681,539.198792 
	C306.315521,526.009399 309.005127,487.332153 285.624603,473.066437 
	C276.837219,467.704834 267.745667,462.838776 258.998383,457.415253 
	C249.891479,451.768707 246.549149,443.082062 249.225479,433.437103 
	C251.504913,425.222473 259.347290,419.705353 269.833923,420.362366 
	C276.181580,420.760071 282.382874,423.163422 288.720337,424.257874 
	C290.596466,424.581909 294.232117,423.910492 294.460571,423.024536 
	C295.572754,418.711639 295.802826,414.171265 295.821503,409.092621 
M314.149445,486.690338 
	C313.812378,499.054932 314.507355,511.273590 318.980713,523.007568 
	C324.696716,538.001343 336.713226,546.204102 353.272583,546.326965 
	C370.049042,546.451538 382.301636,538.806396 387.828979,523.594116 
	C395.363647,502.857178 395.259399,481.743011 387.778992,461.067902 
	C382.707947,447.052063 372.184448,439.007141 356.952393,438.094421 
	C341.101013,437.144653 327.935425,442.486206 321.355591,457.466034 
	C317.497101,466.250366 316.461090,476.274506 314.149445,486.690338 
M712.931396,439.163605 
	C710.268616,439.108734 707.604553,438.971497 704.943359,439.015289 
	C698.333313,439.123962 697.379822,439.906738 696.010681,446.448578 
	C692.403442,463.683624 688.842468,480.928345 685.252380,498.166992 
	C683.885742,504.729553 682.489868,511.286041 680.817749,519.218933 
	C679.975647,516.810364 679.553467,515.899231 679.337402,514.941589 
	C674.254822,492.415405 669.130737,469.898193 664.167236,447.345734 
	C662.606812,440.255524 661.512024,439.110382 654.246399,439.000946 
	C652.747742,438.978363 651.248169,438.982788 649.749329,439.000153 
	C641.943115,439.090576 640.601929,440.995300 642.782104,448.405731 
	C651.826050,479.146515 660.775818,509.915100 669.873413,540.639954 
	C671.064087,544.661255 670.876831,548.266663 669.358215,552.190002 
	C666.718445,559.009583 664.573364,566.021057 662.237305,572.957703 
	C657.797668,586.140381 660.193054,588.775452 674.331421,586.677124 
	C677.989563,586.134155 679.828552,584.364868 680.756470,580.865051 
	C687.957153,553.705566 695.250732,526.570740 702.537537,499.434143 
	C707.235596,481.938416 711.979675,464.455078 716.681152,446.960297 
	C717.541504,443.758850 718.163208,440.578857 712.931396,439.163605 
M496.210846,521.352600 
	C495.997467,522.088562 495.784119,522.824463 495.374573,524.237000 
	C494.776886,523.107300 494.351562,522.606750 494.236908,522.043030 
	C489.471283,498.615204 484.632874,475.201447 480.032166,451.741058 
	C477.507507,438.866974 477.184875,438.430359 463.897858,438.999023 
	C463.565338,439.013245 463.229858,438.987885 462.899475,439.019531 
	C457.438721,439.542938 456.182098,441.207825 457.520111,446.524719 
	C460.318298,457.643677 463.194489,468.743042 466.057312,479.845673 
	C471.159271,499.632385 476.164185,519.445740 481.537842,539.158569 
	C482.149506,541.402344 484.642670,544.415649 486.645905,544.744873 
	C491.650787,545.567505 496.879425,545.177368 502.011108,545.027161 
	C505.464325,544.926147 507.305237,542.813293 508.046478,539.451721 
	C508.976410,535.234192 510.147247,531.069397 511.231018,526.886292 
	C518.107300,500.345581 525.019592,473.814148 531.844360,447.260223 
	C533.444885,441.032928 532.058716,439.259674 525.814148,439.021271 
	C523.486694,438.932434 521.152405,438.983948 518.822021,439.019928 
	C514.673523,439.083954 512.237061,440.675873 511.363068,445.241852 
	C506.549133,470.390472 501.452179,495.484924 496.210846,521.352600 
M596.820557,472.504547 
	C596.820557,493.148987 596.820435,513.793457 596.820618,534.437866 
	C596.820740,544.525391 597.702026,545.416138 607.807251,545.471069 
	C608.634399,545.475586 609.463379,545.353516 610.289673,545.271301 
	C616.921021,544.611206 617.844910,543.615662 617.848267,536.889709 
	C617.860535,512.083069 617.853210,487.276459 617.853271,462.469818 
	C617.853271,460.679718 617.853271,458.889587 617.853271,456.491882 
	C621.811279,456.491882 625.257202,456.465668 628.702576,456.499298 
	C632.088867,456.532349 634.089417,455.060242 634.218079,451.531708 
	C634.296570,449.378357 634.346130,447.221588 634.320984,445.067352 
	C634.271973,440.880981 631.993530,439.154205 627.943176,439.271576 
	C624.703613,439.365448 621.459106,439.290527 617.922852,439.290527 
	C617.922852,431.473999 617.743042,424.337341 617.974670,417.214081 
	C618.195007,410.438019 621.027344,407.997345 627.632812,409.584290 
	C632.720886,410.806610 634.563782,409.009247 635.472839,404.404175 
	C636.964783,396.845947 635.579895,394.576202 627.931885,393.052826 
	C626.463135,392.760284 624.996216,392.429382 623.512451,392.245850 
	C611.135742,390.715027 600.514832,397.356506 597.874268,408.592651 
	C597.047852,412.109192 596.950195,415.838318 596.863525,419.478333 
	C596.710144,425.926910 596.820557,432.381775 596.820557,438.729340 
	C585.406616,440.464722 585.011169,440.632263 585.070251,446.717834 
	C585.097046,449.468842 584.961060,453.439087 586.571533,454.673035 
	C589.016296,456.546173 592.918701,456.516907 596.820557,457.442566 
	C596.820557,461.932159 596.820557,466.719452 596.820557,472.504547 
M434.854095,426.500061 
	C434.854095,419.508972 434.730011,412.515137 434.883209,405.527405 
	C435.111603,395.108887 435.892273,392.614685 421.777649,392.997986 
	C421.278717,393.011536 420.778961,393.017303 420.281311,393.052124 
	C416.001434,393.351715 413.739563,395.148438 413.753448,399.940918 
	C413.871246,440.555420 413.708221,481.170837 413.871552,521.785034 
	C413.949646,541.205200 429.840942,551.568726 447.935303,544.371216 
	C453.115662,542.310547 453.581146,540.435791 452.314056,533.515564 
	C451.421967,528.643372 449.302521,528.025208 444.752899,528.854309 
	C437.369141,530.199890 435.175934,527.951050 434.894714,520.380493 
	C434.832947,518.718079 434.855621,517.052246 434.855530,515.387939 
	C434.853546,486.091980 434.854095,456.796051 434.854095,426.500061 
M216.704651,246.232040 
	C225.836136,237.062729 234.682632,227.583679 244.196381,218.829803 
	C250.864258,212.694519 249.629272,202.017258 241.326706,199.410873 
	C240.755142,199.231461 240.288284,198.718521 239.902847,198.451004 
	C240.077011,189.960098 238.848450,187.975540 230.996902,184.144272 
	C232.154312,177.931946 230.062393,172.949585 223.151215,169.945602 
	C230.091141,163.243179 236.514114,157.462280 242.434113,151.205460 
	C248.523987,144.769104 245.929459,135.053864 237.844879,132.902283 
	C232.989502,131.610107 229.154373,133.464432 225.732697,136.904129 
	C209.990265,152.729507 194.183624,168.491074 178.385529,184.261017 
	C177.181534,185.462875 175.864960,186.551941 174.532669,187.754837 
	C171.561066,183.019379 169.071014,178.697128 166.239044,174.611923 
	C160.313705,166.064468 151.585602,162.347855 141.632523,161.209503 
	C136.938644,160.672668 128.992950,165.148132 128.639114,169.422760 
	C128.425201,172.007065 131.422668,175.218918 133.601898,177.569717 
	C139.422241,183.848282 146.102142,189.296753 147.852081,198.498337 
	C151.583710,218.120163 162.111969,233.442368 177.049225,246.653336 
	C190.835266,258.846130 203.090805,259.609680 216.704651,246.232040 
M552.079834,544.678528 
	C555.056763,544.938354 558.044128,545.501465 561.008545,545.399170 
	C568.742676,545.132202 569.851257,543.850647 569.852966,536.124634 
	C569.857666,514.792908 569.855164,493.461212 569.854431,472.129486 
	C569.854126,463.130188 569.795593,454.130371 569.873596,445.131775 
	C569.912231,440.672516 566.957153,439.047913 563.451721,439.174225 
	C558.477722,439.353455 552.546448,436.737518 549.051636,442.822205 
	C548.678284,443.472290 548.830139,444.455383 548.829895,445.284027 
	C548.820557,476.448334 548.779602,507.612823 548.928894,538.776428 
	C548.937805,540.621582 550.488403,542.459412 552.079834,544.678528 
M568.543823,423.918030 
	C569.023499,418.888092 569.682190,413.866974 569.931519,408.825653 
	C570.172546,403.954132 566.316467,403.168854 562.818359,403.107086 
	C557.951599,403.021179 552.326477,401.053833 549.041870,406.871796 
	C548.674316,407.522858 548.846130,408.498779 548.832581,409.325104 
	C548.805359,410.984192 548.822205,412.643982 548.822144,414.303497 
	C548.821838,424.990173 550.467896,426.613922 561.152588,425.934357 
	C563.415894,425.790405 565.634705,424.945770 568.543823,423.918030 
M176.770370,137.994110 
	C177.720963,139.983429 178.671555,141.972748 179.622147,143.962067 
	C180.605759,141.974609 182.242722,140.049210 182.438599,137.986923 
	C182.861664,133.532684 182.776596,128.987839 182.383392,124.525551 
	C182.272675,123.268921 180.371231,122.170082 179.291122,120.998871 
	C178.455139,122.203804 176.992508,123.361809 176.898102,124.622284 
	C176.588058,128.762283 176.774536,132.939468 176.770370,137.994110 
M199.239944,142.760574 
	C201.798584,140.174377 204.523331,137.724915 206.826019,134.927994 
	C207.634979,133.945404 207.408539,132.110382 207.654892,130.664581 
	C206.053238,130.747925 203.930420,130.206680 202.945236,131.028793 
	C199.663025,133.767715 196.575089,136.819397 193.856262,140.116928 
	C192.648712,141.581528 191.377335,144.753235 192.083755,145.707687 
	C194.242294,148.624146 195.939621,145.518799 197.676422,144.302765 
	C198.072174,144.025665 198.342346,143.569214 199.239944,142.760574 
M153.240005,136.112198 
	C156.042511,138.907272 158.674500,141.911545 161.727127,144.399750 
	C163.042953,145.472290 165.229538,145.476547 167.020554,145.966110 
	C166.653992,144.165222 166.840149,141.914536 165.812439,140.651703 
	C163.212311,137.456741 160.215973,134.529449 157.066650,131.863098 
	C155.800186,130.790833 153.718796,130.681091 152.008301,130.133286 
	C152.227814,131.973679 152.447311,133.814087 153.240005,136.112198 
z"/>
<path fill="#F3F3F3" opacity="1.000000" stroke="none" 
	d="
M296.083313,409.402039 
	C295.802826,414.171265 295.572754,418.711639 294.460571,423.024536 
	C294.232117,423.910492 290.596466,424.581909 288.720337,424.257874 
	C282.382874,423.163422 276.181580,420.760071 269.833923,420.362366 
	C259.347290,419.705353 251.504913,425.222473 249.225479,433.437103 
	C246.549149,443.082062 249.891479,451.768707 258.998383,457.415253 
	C267.745667,462.838776 276.837219,467.704834 285.624603,473.066437 
	C309.005127,487.332153 306.315521,526.009399 285.260681,539.198792 
	C272.553192,547.159180 258.822296,547.623047 244.827896,544.462524 
	C239.421890,543.241638 234.175842,540.770325 229.241135,538.146118 
	C223.495575,535.090698 223.523605,523.044434 229.197739,519.756287 
	C230.488983,519.008057 233.062637,519.614746 234.657227,520.393738 
	C242.330093,524.141907 250.061111,527.264404 258.840546,527.369080 
	C268.621887,527.485779 276.593384,523.144470 279.440155,515.514709 
	C282.954865,506.094757 280.375671,495.619171 272.167175,490.162689 
	C263.746521,484.565155 254.636398,480.017181 245.992035,474.741089 
	C229.804062,464.860809 224.592819,450.056183 228.825424,430.768036 
	C232.497787,414.032959 246.121170,403.229706 263.942871,401.935791 
	C275.272797,401.113190 286.166687,402.381927 296.083313,409.402039 
z"/>
<path fill="#F2F3F3" opacity="1.000000" stroke="none" 
	d="
M314.152466,486.215637 
	C316.461090,476.274506 317.497101,466.250366 321.355591,457.466034 
	C327.935425,442.486206 341.101013,437.144653 356.952393,438.094421 
	C372.184448,439.007141 382.707947,447.052063 387.778992,461.067902 
	C395.259399,481.743011 395.363647,502.857178 387.828979,523.594116 
	C382.301636,538.806396 370.049042,546.451538 353.272583,546.326965 
	C336.713226,546.204102 324.696716,538.001343 318.980713,523.007568 
	C314.507355,511.273590 313.812378,499.054932 314.152466,486.215637 
M371.120728,482.426788 
	C369.979492,476.746918 369.445312,470.854492 367.548981,465.439026 
	C364.968628,458.070343 359.527405,454.786499 352.779785,455.113953 
	C345.925598,455.446594 340.872864,459.167847 338.878357,466.666748 
	C334.398102,483.511749 334.237885,500.531769 338.859467,517.372681 
	C341.147888,525.711670 345.979767,529.146057 353.467102,529.154602 
	C360.704956,529.162842 365.486206,525.403320 368.217712,517.378906 
	C371.994476,506.283966 371.636108,494.814117 371.120728,482.426788 
z"/>
<path fill="#F2F3F3" opacity="1.000000" stroke="none" 
	d="
M713.369995,439.232635 
	C718.163208,440.578857 717.541504,443.758850 716.681152,446.960297 
	C711.979675,464.455078 707.235596,481.938416 702.537537,499.434143 
	C695.250732,526.570740 687.957153,553.705566 680.756470,580.865051 
	C679.828552,584.364868 677.989563,586.134155 674.331421,586.677124 
	C660.193054,588.775452 657.797668,586.140381 662.237305,572.957703 
	C664.573364,566.021057 666.718445,559.009583 669.358215,552.190002 
	C670.876831,548.266663 671.064087,544.661255 669.873413,540.639954 
	C660.775818,509.915100 651.826050,479.146515 642.782104,448.405731 
	C640.601929,440.995300 641.943115,439.090576 649.749329,439.000153 
	C651.248169,438.982788 652.747742,438.978363 654.246399,439.000946 
	C661.512024,439.110382 662.606812,440.255524 664.167236,447.345734 
	C669.130737,469.898193 674.254822,492.415405 679.337402,514.941589 
	C679.553467,515.899231 679.975647,516.810364 680.817749,519.218933 
	C682.489868,511.286041 683.885742,504.729553 685.252380,498.166992 
	C688.842468,480.928345 692.403442,463.683624 696.010681,446.448578 
	C697.379822,439.906738 698.333313,439.123962 704.943359,439.015289 
	C707.604553,438.971497 710.268616,439.108734 713.369995,439.232635 
z"/>
<path fill="#F3F3F4" opacity="1.000000" stroke="none" 
	d="
M496.331573,520.975281 
	C501.452179,495.484924 506.549133,470.390472 511.363068,445.241852 
	C512.237061,440.675873 514.673523,439.083954 518.822021,439.019928 
	C521.152405,438.983948 523.486694,438.932434 525.814148,439.021271 
	C532.058716,439.259674 533.444885,441.032928 531.844360,447.260223 
	C525.019592,473.814148 518.107300,500.345581 511.231018,526.886292 
	C510.147247,531.069397 508.976410,535.234192 508.046478,539.451721 
	C507.305237,542.813293 505.464325,544.926147 502.011108,545.027161 
	C496.879425,545.177368 491.650787,545.567505 486.645905,544.744873 
	C484.642670,544.415649 482.149506,541.402344 481.537842,539.158569 
	C476.164185,519.445740 471.159271,499.632385 466.057312,479.845673 
	C463.194489,468.743042 460.318298,457.643677 457.520111,446.524719 
	C456.182098,441.207825 457.438721,439.542938 462.899475,439.019531 
	C463.229858,438.987885 463.565338,439.013245 463.897858,438.999023 
	C477.184875,438.430359 477.507507,438.866974 480.032166,451.741058 
	C484.632874,475.201447 489.471283,498.615204 494.236908,522.043030 
	C494.351562,522.606750 494.776886,523.107300 495.374573,524.237000 
	C495.784119,522.824463 495.997467,522.088562 496.331573,520.975281 
z"/>
<path fill="#F2F3F3" opacity="1.000000" stroke="none" 
	d="
M596.820557,472.005676 
	C596.820557,466.719452 596.820557,461.932159 596.820557,457.442566 
	C592.918701,456.516907 589.016296,456.546173 586.571533,454.673035 
	C584.961060,453.439087 585.097046,449.468842 585.070251,446.717834 
	C585.011169,440.632263 585.406616,440.464722 596.820557,438.729340 
	C596.820557,432.381775 596.710144,425.926910 596.863525,419.478333 
	C596.950195,415.838318 597.047852,412.109192 597.874268,408.592651 
	C600.514832,397.356506 611.135742,390.715027 623.512451,392.245850 
	C624.996216,392.429382 626.463135,392.760284 627.931885,393.052826 
	C635.579895,394.576202 636.964783,396.845947 635.472839,404.404175 
	C634.563782,409.009247 632.720886,410.806610 627.632812,409.584290 
	C621.027344,407.997345 618.195007,410.438019 617.974670,417.214081 
	C617.743042,424.337341 617.922852,431.473999 617.922852,439.290527 
	C621.459106,439.290527 624.703613,439.365448 627.943176,439.271576 
	C631.993530,439.154205 634.271973,440.880981 634.320984,445.067352 
	C634.346130,447.221588 634.296570,449.378357 634.218079,451.531708 
	C634.089417,455.060242 632.088867,456.532349 628.702576,456.499298 
	C625.257202,456.465668 621.811279,456.491882 617.853271,456.491882 
	C617.853271,458.889587 617.853271,460.679718 617.853271,462.469818 
	C617.853210,487.276459 617.860535,512.083069 617.848267,536.889709 
	C617.844910,543.615662 616.921021,544.611206 610.289673,545.271301 
	C609.463379,545.353516 608.634399,545.475586 607.807251,545.471069 
	C597.702026,545.416138 596.820740,544.525391 596.820618,534.437866 
	C596.820435,513.793457 596.820557,493.148987 596.820557,472.005676 
z"/>
<path fill="#F2F3F3" opacity="1.000000" stroke="none" 
	d="
M434.854095,427.000061 
	C434.854095,456.796051 434.853546,486.091980 434.855530,515.387939 
	C434.855621,517.052246 434.832947,518.718079 434.894714,520.380493 
	C435.175934,527.951050 437.369141,530.199890 444.752899,528.854309 
	C449.302521,528.025208 451.421967,528.643372 452.314056,533.515564 
	C453.581146,540.435791 453.115662,542.310547 447.935303,544.371216 
	C429.840942,551.568726 413.949646,541.205200 413.871552,521.785034 
	C413.708221,481.170837 413.871246,440.555420 413.753448,399.940918 
	C413.739563,395.148438 416.001434,393.351715 420.281311,393.052124 
	C420.778961,393.017303 421.278717,393.011536 421.777649,392.997986 
	C435.892273,392.614685 435.111603,395.108887 434.883209,405.527405 
	C434.730011,412.515137 434.854095,419.508972 434.854095,427.000061 
z"/>
<path fill="#EFF2F2" opacity="1.000000" stroke="none" 
	d="
M216.460297,246.475967 
	C203.090805,259.609680 190.835266,258.846130 177.049225,246.653336 
	C162.111969,233.442368 151.583710,218.120163 147.852081,198.498337 
	C146.102142,189.296753 139.422241,183.848282 133.601898,177.569717 
	C131.422668,175.218918 128.425201,172.007065 128.639114,169.422760 
	C128.992950,165.148132 136.938644,160.672668 141.632523,161.209503 
	C151.585602,162.347855 160.313705,166.064468 166.239044,174.611923 
	C169.071014,178.697128 171.561066,183.019379 174.532669,187.754837 
	C175.864960,186.551941 177.181534,185.462875 178.385529,184.261017 
	C194.183624,168.491074 209.990265,152.729507 225.732697,136.904129 
	C229.154373,133.464432 232.989502,131.610107 237.844879,132.902283 
	C245.929459,135.053864 248.523987,144.769104 242.434113,151.205460 
	C236.514114,157.462280 230.091141,163.243179 223.151215,169.945602 
	C230.062393,172.949585 232.154312,177.931946 230.996902,184.144272 
	C238.848450,187.975540 240.077011,189.960098 239.902847,198.451004 
	C240.288284,198.718521 240.755142,199.231461 241.326706,199.410873 
	C249.629272,202.017258 250.864258,212.694519 244.196381,218.829803 
	C234.682632,227.583679 225.836136,237.062729 216.460297,246.475967 
M237.149323,148.520233 
	C239.979187,145.800858 241.653122,142.592590 238.227142,139.517914 
	C235.073547,136.687698 232.178162,138.556396 229.613724,141.248672 
	C225.839310,145.211197 221.861725,148.979645 217.990311,152.850403 
	C204.618164,166.220230 191.272430,179.616531 177.876373,192.962357 
	C174.027634,196.796661 172.772308,196.570679 170.084869,191.968475 
	C167.905197,188.235825 165.622772,184.561768 163.503448,180.795609 
	C159.196503,173.141907 152.449783,169.116272 144.071518,167.336273 
	C140.337845,166.543045 137.155045,166.882812 135.069855,170.703857 
	C135.409546,171.222382 135.650391,171.937973 136.148331,172.299133 
	C148.012283,180.904724 153.074585,193.493851 156.700531,206.992737 
	C157.861588,211.315201 159.421722,215.535065 160.912476,219.761948 
	C161.457275,221.306671 162.006439,223.057114 163.106216,224.165329 
	C170.463516,231.579285 177.697006,239.153702 185.509430,246.067291 
	C192.522110,252.273148 201.891708,252.199448 208.661392,245.835892 
	C219.648407,235.508026 230.164902,224.678040 240.822525,214.002594 
	C243.008362,211.813110 244.325638,208.799347 241.538483,206.635696 
	C239.891724,205.357330 236.893936,205.778122 234.494125,205.525711 
	C232.921021,205.360229 231.330795,205.357269 229.748230,205.281509 
	C230.121857,203.839050 230.285995,202.293091 230.932098,200.985260 
	C231.500214,199.835297 233.195068,199.033340 233.347778,197.932755 
	C233.617523,195.988724 233.784958,192.811249 232.748962,192.173019 
	C230.903046,191.035812 228.132751,191.350372 225.740677,191.166412 
	C224.269684,191.053284 222.783173,191.141724 221.303635,191.139679 
	C221.640381,189.543869 221.844391,187.902191 222.372925,186.372665 
	C222.617126,185.665955 223.903351,185.244247 224.010971,184.579071 
	C224.375320,182.326996 225.371429,179.291794 224.329849,177.943726 
	C223.263321,176.563370 219.939255,176.122604 217.868225,176.551041 
	C215.828003,176.973129 213.700943,179.030045 212.463104,176.270157 
	C211.951721,175.130020 213.258011,172.593430 214.439651,171.370056 
	C221.731049,163.821045 229.222763,156.465515 237.149323,148.520233 
z"/>
<path fill="#F1F3F3" opacity="1.000000" stroke="none" 
	d="
M551.700684,544.489624 
	C550.488403,542.459412 548.937805,540.621582 548.928894,538.776428 
	C548.779602,507.612823 548.820557,476.448334 548.829895,445.284027 
	C548.830139,444.455383 548.678284,443.472290 549.051636,442.822205 
	C552.546448,436.737518 558.477722,439.353455 563.451721,439.174225 
	C566.957153,439.047913 569.912231,440.672516 569.873596,445.131775 
	C569.795593,454.130371 569.854126,463.130188 569.854431,472.129486 
	C569.855164,493.461212 569.857666,514.792908 569.852966,536.124634 
	C569.851257,543.850647 568.742676,545.132202 561.008545,545.399170 
	C558.044128,545.501465 555.056763,544.938354 551.700684,544.489624 
z"/>
<path fill="#F2F3F3" opacity="1.000000" stroke="none" 
	d="
M568.208923,424.171021 
	C565.634705,424.945770 563.415894,425.790405 561.152588,425.934357 
	C550.467896,426.613922 548.821838,424.990173 548.822144,414.303497 
	C548.822205,412.643982 548.805359,410.984192 548.832581,409.325104 
	C548.846130,408.498779 548.674316,407.522858 549.041870,406.871796 
	C552.326477,401.053833 557.951599,403.021179 562.818359,403.107086 
	C566.316467,403.168854 570.172546,403.954132 569.931519,408.825653 
	C569.682190,413.866974 569.023499,418.888092 568.208923,424.171021 
z"/>
<path fill="#E1ECED" opacity="1.000000" stroke="none" 
	d="
M176.770294,137.548233 
	C176.774536,132.939468 176.588058,128.762283 176.898102,124.622284 
	C176.992508,123.361809 178.455139,122.203804 179.291122,120.998871 
	C180.371231,122.170082 182.272675,123.268921 182.383392,124.525551 
	C182.776596,128.987839 182.861664,133.532684 182.438599,137.986923 
	C182.242722,140.049210 180.605759,141.974609 179.622147,143.962067 
	C178.671555,141.972748 177.720963,139.983429 176.770294,137.548233 
z"/>
<path fill="#E0ECEC" opacity="1.000000" stroke="none" 
	d="
M198.955139,142.977936 
	C198.342346,143.569214 198.072174,144.025665 197.676422,144.302765 
	C195.939621,145.518799 194.242294,148.624146 192.083755,145.707687 
	C191.377335,144.753235 192.648712,141.581528 193.856262,140.116928 
	C196.575089,136.819397 199.663025,133.767715 202.945236,131.028793 
	C203.930420,130.206680 206.053238,130.747925 207.654877,130.664581 
	C207.408539,132.110382 207.634979,133.945404 206.826019,134.927994 
	C204.523331,137.724915 201.798584,140.174377 198.955139,142.977936 
z"/>
<path fill="#E5EEEE" opacity="1.000000" stroke="none" 
	d="
M152.953415,135.883331 
	C152.447311,133.814087 152.227814,131.973679 152.008301,130.133286 
	C153.718796,130.681091 155.800186,130.790833 157.066650,131.863098 
	C160.215973,134.529449 163.212311,137.456741 165.812439,140.651703 
	C166.840149,141.914536 166.653992,144.165222 167.020554,145.966110 
	C165.229538,145.476547 163.042953,145.472290 161.727127,144.399750 
	C158.674500,141.911545 156.042511,138.907272 152.953415,135.883331 
z"/>
<path fill="#149A9F" opacity="1.000000" stroke="none" 
	d="
M371.135132,482.884338 
	C371.636108,494.814117 371.994476,506.283966 368.217712,517.378906 
	C365.486206,525.403320 360.704956,529.162842 353.467102,529.154602 
	C345.979767,529.146057 341.147888,525.711670 338.859467,517.372681 
	C334.237885,500.531769 334.398102,483.511749 338.878357,466.666748 
	C340.872864,459.167847 345.925598,455.446594 352.779785,455.113953 
	C359.527405,454.786499 364.968628,458.070343 367.548981,465.439026 
	C369.445312,470.854492 369.979492,476.746918 371.135132,482.884338 
z"/>
<path fill="#149A9F" opacity="1.000000" stroke="none" 
	d="
M236.898621,148.782959 
	C229.222763,156.465515 221.731049,163.821045 214.439651,171.370056 
	C213.258011,172.593430 211.951721,175.130020 212.463104,176.270157 
	C213.700943,179.030045 215.828003,176.973129 217.868225,176.551041 
	C219.939255,176.122604 223.263321,176.563370 224.329849,177.943726 
	C225.371429,179.291794 224.375320,182.326996 224.010971,184.579071 
	C223.903351,185.244247 222.617126,185.665955 222.372925,186.372665 
	C221.844391,187.902191 221.640381,189.543869 221.303635,191.139679 
	C222.783173,191.141724 224.269684,191.053284 225.740677,191.166412 
	C228.132751,191.350372 230.903046,191.035812 232.748962,192.173019 
	C233.784958,192.811249 233.617523,195.988724 233.347778,197.932755 
	C233.195068,199.033340 231.500214,199.835297 230.932098,200.985260 
	C230.285995,202.293091 230.121857,203.839050 229.748230,205.281509 
	C231.330795,205.357269 232.921021,205.360229 234.494125,205.525711 
	C236.893936,205.778122 239.891724,205.357330 241.538483,206.635696 
	C244.325638,208.799347 243.008362,211.813110 240.822525,214.002594 
	C230.164902,224.678040 219.648407,235.508026 208.661392,245.835892 
	C201.891708,252.199448 192.522110,252.273148 185.509430,246.067291 
	C177.697006,239.153702 170.463516,231.579285 163.106216,224.165329 
	C162.006439,223.057114 161.457275,221.306671 160.912476,219.761948 
	C159.421722,215.535065 157.861588,211.315201 156.700531,206.992737 
	C153.074585,193.493851 148.012283,180.904724 136.148331,172.299133 
	C135.650391,171.937973 135.409546,171.222382 135.069855,170.703857 
	C137.155045,166.882812 140.337845,166.543045 144.071518,167.336273 
	C152.449783,169.116272 159.196503,173.141907 163.503448,180.795609 
	C165.622772,184.561768 167.905197,188.235825 170.084869,191.968475 
	C172.772308,196.570679 174.027634,196.796661 177.876373,192.962357 
	C191.272430,179.616531 204.618164,166.220230 217.990311,152.850403 
	C221.861725,148.979645 225.839310,145.211197 229.613724,141.248672 
	C232.178162,138.556396 235.073547,136.687698 238.227142,139.517914 
	C241.653122,142.592590 239.979187,145.800858 236.898621,148.782959 
z"/>
</svg>